{"title":"Hometown.Hotties.XXX.DVDRiP.XviD-DivXfacTory","uid":7755374,"size":732844032,"categoryP":"porn","categoryS":"movies","magnet":"?xt=urn:btih:0dcc03911b69702b5ac48584d4150c321f0bced4&amp;dn=Hometown.Hotties.XXX.DVDRiP.XviD-DivXfacTory&amp;tr=udp%3A%2F%2Ftracker.openbittorrent.com%3A80&amp;tr=udp%3A%2F%2Fopen.demonii.com%3A1337&amp;tr=udp%3A%2F%2Ftracker.coppersurfer.tk%3A6969&amp;tr=udp%3A%2F%2Fexodus.desync.com%3A6969","seeders":0,"leechers":0,"uploader":"R0thschild","files":2,"time":1351038361,"description":"Gallery: \n &lt;a href=&quot;\nhttp://imagedomino.com/?g=660923&quot; rel=&quot;nofollow&quot; target=&quot;_NEW&quot;&gt;\nhttp://imagedomino.com/?g=660923&lt;/a&gt;\n\nVideo\nFormat                           : MPEG-4 Visual\nFormat profile                   : Streaming Video@L1\nFormat settings, BVOP            : Yes\nFormat settings, QPel            : No\nFormat settings, GMC             : No warppoints\nFormat settings, Matrix          : Default\nCodec ID                         : XVID\nCodec ID/Hint                    : XviD\nDuration                         : 1h 9mn\nBit rate                         : 1 258 Kbps\nWidth                            : 512 pixels\nHeight                           : 288 pixels\nDisplay aspect ratio             : 16/9\nFrame rate                       : 29.970 fps\nResolution                       : 24 bits\nColorimetry                      : 4:2:0\nScan type                        : Progressive\nBits/(Pixel*Frame)               : 0.285\nStream size                      : 630 MiB (90%)\nWriting library                  : XviD 1.1.2 (UTC 2006-11-01)\n\nAudio\nFormat                           : MPEG Audio\nFormat version                   : Version 1\nFormat profile                   : Layer 3\nCodec ID                         : 55\nCodec ID/Hint                    : MP3\nDuration                         : 1h 9mn\nBit rate mode                    : Variable\nBit rate                         : 125 Kbps\nChannel(s)                       : 2 channels\nSampling rate                    : 48.0 KHz\nResolution                       : 16 bits\nStream size                      : 62.6 MiB (9%)\nAlignment                        : Aligned on interleaves\nInterleave, duration             : 24 ms (0.72 video frame)\nInterleave, preload duration     : 470 ms","torrent":{"xt":"urn:btih:0dcc03911b69702b5ac48584d4150c321f0bced4","amp;dn":"Hometown.Hotties.XXX.DVDRiP.XviD-DivXfacTory","amp;tr":["udp%3A%2F%2Ftracker.openbittorrent.com%3A80","udp%3A%2F%2Fopen.demonii.com%3A1337","udp%3A%2F%2Ftracker.coppersurfer.tk%3A6969","udp%3A%2F%2Fexodus.desync.com%3A6969"],"infoHash":"0dcc03911b69702b5ac48584d4150c321f0bced4","infoHashBuffer":{"type":"Buffer","data":[13,204,3,145,27,105,112,43,90,196,133,132,212,21,12,50,31,11,206,212]},"announce":[],"urlList":[]}}